<?xml version="1.0" encoding="UTF-8" standalone="no"?>
<!DOCTYPE svg PUBLIC "-//W3C//DTD SVG 1.1//EN" "http://www.w3.org/Graphics/SVG/1.1/DTD/svg11.dtd">
<svg version="1.1" xmlns="http://www.w3.org/2000/svg" xmlns:xlink="http://www.w3.org/1999/xlink" preserveAspectRatio="xMidYMid meet" viewBox="0 0 640 640" width="150" height="150"><defs><path d="M297.13 341.69L384.55 254.26L366.77 236.48L279.35 323.91L297.13 341.69Z" id="a7cquBvodV"></path><path d="M384.49 254.29C379.58 259.2 371.62 259.2 366.71 254.29C361.8 249.38 361.8 241.41 366.71 236.5C371.62 231.6 379.58 231.6 384.49 236.5C389.4 241.41 389.4 249.38 384.49 254.29Z" id="avOlZIZA"></path><path d="M297.13 341.69L209.7 254.26L227.48 236.48L314.91 323.91L297.13 341.69Z" id="bk7Xwvzi3"></path><path d="M209.76 254.29C214.67 259.2 222.64 259.2 227.54 254.29C232.45 249.38 232.45 241.41 227.54 236.5C222.64 231.6 214.67 231.6 209.76 236.5C204.85 241.41 204.85 249.38 209.76 254.29Z" id="adAnY5XJI"></path></defs><g><g><g><g><g><use xlink:href="#a7cquBvodV" opacity="1" fill="#66b032" fill-opacity="1"></use></g><g><use xlink:href="#avOlZIZA" opacity="1" fill="#66b032" fill-opacity="1"></use></g></g><g><g><use xlink:href="#bk7Xwvzi3" opacity="1" fill="#66b032" fill-opacity="1"></use></g><g><use xlink:href="#adAnY5XJI" opacity="1" fill="#66b032" fill-opacity="1"></use></g></g></g></g></g></svg>